<svg xmlns="http://www.w3.org/2000/svg" xmlns:xlink="http://www.w3.org/1999/xlink" width="1080" zoomAndPan="magnify" viewBox="0 0 810 809.999993" height="1080" preserveAspectRatio="xMidYMid meet" version="1.0"><defs><clipPath id="266bcf3b6e"><path d="M 159 278.484375 L 614 278.484375 L 614 473 L 159 473 Z M 159 278.484375 " clip-rule="nonzero"/></clipPath><clipPath id="713740416c"><path d="M 158 278.484375 L 614.496094 278.484375 L 614.496094 474.234375 L 158 474.234375 Z M 158 278.484375 " clip-rule="nonzero"/></clipPath></defs><rect x="-81" width="972" fill="#ffffff" y="-80.999999" height="971.999992" fill-opacity="1"/><rect x="-81" width="972" fill="#ffffff" y="-80.999999" height="971.999992" fill-opacity="1"/><g clip-path="url(#266bcf3b6e)"><path fill="#74a050" d="M 613.066406 317.882812 L 613.066406 317.066406 L 601.644531 317.066406 L 601.644531 306.050781 L 601.195312 306.050781 L 601.195312 305.226562 L 588.410156 305.226562 L 588.410156 292.917969 L 587.949219 292.917969 L 587.949219 292.101562 L 575.167969 292.101562 L 575.167969 279.792969 L 574.707031 279.792969 L 574.707031 278.976562 L 197.433594 278.976562 L 197.433594 292.101562 L 185.519531 292.101562 L 185.519531 304.847656 L 185.210938 304.847656 L 185.210938 305.226562 L 172.285156 305.226562 L 172.285156 317.066406 L 159.042969 317.066406 L 159.042969 433.972656 L 159.503906 433.972656 L 159.503906 434.789062 L 172.285156 434.789062 L 172.285156 447.089844 L 172.734375 447.089844 L 172.734375 447.90625 L 185.519531 447.90625 L 185.519531 458.925781 L 185.949219 458.925781 L 185.949219 459.753906 L 197.433594 459.753906 L 197.433594 472.074219 L 197.882812 472.074219 L 197.882812 472.890625 L 575.167969 472.890625 L 575.167969 459.753906 L 575.023438 459.753906 L 575.023438 458.925781 L 575.167969 458.925781 L 575.167969 459.753906 L 588.453125 459.753906 L 588.453125 447.9375 L 601.683594 447.9375 L 601.683594 434.839844 L 613.597656 434.839844 L 613.597656 317.882812 Z M 574.707031 447.324219 Z M 587.992188 433.972656 L 587.992188 433.617188 Z M 587.992188 433.972656 " fill-opacity="1" fill-rule="nonzero"/></g><path fill="#74a050" d="M 601.296875 317.871094 L 601.296875 306.0625 L 588.011719 306.0625 L 588.011719 318.492188 L 587.601562 318.492188 L 587.601562 306.0625 L 588.011719 306.0625 L 588.011719 292.980469 L 574.730469 292.980469 L 574.730469 305.675781 L 574.585938 305.675781 L 574.585938 292.980469 L 574.730469 292.980469 L 574.730469 279.824219 L 197.445312 279.824219 L 197.445312 292.980469 L 185.527344 292.980469 L 185.527344 305.675781 L 185.222656 305.675781 L 185.222656 306.0625 L 172.285156 306.0625 L 172.285156 317.871094 L 159.042969 317.871094 L 159.042969 434.65625 L 172.328125 434.65625 L 172.328125 434.3125 L 172.785156 434.3125 L 172.785156 434.65625 L 172.328125 434.65625 L 172.328125 447.78125 L 185.609375 447.78125 L 185.609375 459.589844 L 197.445312 459.589844 L 197.445312 472.714844 L 574.808594 472.714844 L 574.808594 459.589844 L 574.667969 459.589844 L 574.667969 447.996094 L 574.808594 447.996094 L 574.808594 459.589844 L 588.09375 459.589844 L 588.09375 447.78125 L 601.378906 447.78125 L 601.378906 434.65625 L 613.292969 434.65625 L 613.292969 317.871094 Z M 587.59375 447.222656 L 587.59375 435.738281 L 588.003906 435.738281 L 588.003906 447.222656 Z M 599.9375 435.28125 L 588.054688 435.28125 L 588.054688 434.921875 L 599.9375 434.921875 Z M 599.9375 435.28125 " fill-opacity="1" fill-rule="nonzero"/><path fill="#ffffff" d="M 288.894531 331.027344 L 301.914062 331.027344 L 301.914062 344.027344 L 288.894531 344.027344 Z M 288.894531 331.027344 " fill-opacity="1" fill-rule="nonzero"/><path fill="#ffffff" d="M 262.878906 331.027344 L 275.898438 331.027344 L 275.898438 344.027344 L 262.878906 344.027344 Z M 262.878906 331.027344 " fill-opacity="1" fill-rule="nonzero"/><path fill="#ffffff" d="M 249.871094 318.035156 L 236.875 318.035156 L 236.875 421.972656 L 249.871094 421.972656 L 249.871094 331.015625 L 262.878906 331.015625 L 262.878906 318.035156 Z M 249.871094 318.035156 " fill-opacity="1" fill-rule="nonzero"/><path fill="#ffffff" d="M 301.914062 318.035156 L 301.914062 331.015625 L 314.910156 331.015625 L 314.910156 421.972656 L 327.910156 421.972656 L 327.910156 318.035156 Z M 301.914062 318.035156 " fill-opacity="1" fill-rule="nonzero"/><path fill="#ffffff" d="M 275.898438 357 L 275.898438 369.992188 L 288.894531 369.992188 L 288.894531 344.027344 L 275.898438 344.027344 Z M 275.898438 357 " fill-opacity="1" fill-rule="nonzero"/><path fill="#ffffff" d="M 510.007812 408.980469 L 497.007812 408.980469 L 497.007812 421.972656 L 536.03125 421.972656 L 536.03125 408.980469 Z M 510.007812 408.980469 " fill-opacity="1" fill-rule="nonzero"/><path fill="#ffffff" d="M 536.03125 318.035156 L 536.03125 408.980469 L 549.03125 408.980469 L 549.03125 318.035156 Z M 536.03125 318.035156 " fill-opacity="1" fill-rule="nonzero"/><path fill="#ffffff" d="M 366.941406 318.035156 L 340.925781 318.035156 L 340.925781 421.972656 L 392.949219 421.972656 L 392.949219 408.980469 L 353.925781 408.980469 L 353.925781 369.992188 L 379.949219 369.992188 L 379.949219 357 L 353.925781 357 L 353.925781 331.015625 L 392.949219 331.015625 L 392.949219 318.035156 Z M 366.941406 318.035156 " fill-opacity="1" fill-rule="nonzero"/><path fill="#ffffff" d="M 497.007812 382.996094 L 497.007812 318.035156 L 484 318.035156 L 484 408.980469 L 497.007812 408.980469 Z M 497.007812 382.996094 " fill-opacity="1" fill-rule="nonzero"/><path fill="#ffffff" d="M 457.984375 331.015625 L 457.984375 357 L 444.976562 357 L 444.976562 344.027344 L 431.960938 344.027344 L 431.960938 331.015625 L 418.964844 331.015625 L 418.964844 318.035156 L 405.964844 318.035156 L 405.964844 421.972656 L 418.964844 421.972656 L 418.964844 357 L 431.960938 357 L 431.960938 369.992188 L 444.976562 369.992188 L 444.976562 382.996094 L 457.984375 382.996094 L 457.984375 421.972656 L 470.992188 421.972656 L 470.992188 318.035156 L 457.984375 318.035156 Z M 457.984375 331.015625 " fill-opacity="1" fill-rule="nonzero"/><path fill="#507335" d="M 458.191406 344.027344 L 458.191406 317.832031 L 444.773438 317.832031 L 444.773438 357.203125 L 458.191406 357.203125 Z M 458.191406 344.027344 " fill-opacity="1" fill-rule="nonzero"/><path fill="#507335" d="M 431.757812 383.199219 L 444.773438 383.199219 L 444.773438 422.175781 L 458.191406 422.175781 L 458.191406 382.792969 L 445.183594 382.792969 L 445.183594 369.789062 L 432.164062 369.789062 L 432.164062 356.796875 L 418.757812 356.796875 L 418.757812 370.195312 L 431.757812 370.195312 Z M 431.757812 383.199219 " fill-opacity="1" fill-rule="nonzero"/><path fill="#507335" d="M 536.238281 395.976562 L 536.238281 317.832031 L 522.808594 317.832031 L 522.808594 409.183594 L 536.238281 409.183594 Z M 536.238281 395.976562 " fill-opacity="1" fill-rule="nonzero"/><path fill="#507335" d="M 406.167969 408.980469 L 406.167969 317.832031 L 392.742188 317.832031 L 392.742188 422.175781 L 406.167969 422.175781 Z M 406.167969 408.980469 " fill-opacity="1" fill-rule="nonzero"/><path fill="#507335" d="M 483.796875 422.175781 L 497.214844 422.175781 L 497.214844 408.773438 L 484.207031 408.773438 L 484.207031 317.832031 L 470.789062 317.832031 L 470.789062 409.183594 L 483.796875 409.183594 Z M 483.796875 422.175781 " fill-opacity="1" fill-rule="nonzero"/><path fill="#507335" d="M 237.078125 408.980469 L 237.078125 317.832031 L 223.664062 317.832031 L 223.664062 422.175781 L 237.078125 422.175781 Z M 237.078125 408.980469 " fill-opacity="1" fill-rule="nonzero"/><path fill="#507335" d="M 588.769531 318.503906 L 588.769531 317.832031 L 587.941406 317.832031 L 587.941406 434.738281 L 574.941406 434.738281 L 574.941406 447.742188 L 198.109375 447.742188 L 198.109375 460.683594 L 575.351562 460.683594 L 575.351562 448.425781 L 575.527344 448.425781 L 575.527344 447.699219 L 591.566406 447.699219 L 591.566406 437.199219 L 600.703125 437.199219 L 600.703125 318.503906 Z M 588.769531 318.503906 " fill-opacity="1" fill-rule="nonzero"/><path fill="#507335" d="M 262.675781 357 L 262.675781 370.195312 L 276.101562 370.195312 L 276.101562 343.816406 L 263.085938 343.816406 L 263.085938 330.824219 L 249.667969 330.824219 L 249.667969 344.234375 L 262.675781 344.234375 Z M 262.675781 357 " fill-opacity="1" fill-rule="nonzero"/><path fill="#507335" d="M 315.117188 408.980469 L 315.117188 330.824219 L 301.710938 330.824219 L 301.710938 422.175781 L 315.117188 422.175781 Z M 315.117188 408.980469 " fill-opacity="1" fill-rule="nonzero"/><path fill="#507335" d="M 341.132812 408.980469 L 341.132812 317.832031 L 327.703125 317.832031 L 327.703125 422.175781 L 341.132812 422.175781 Z M 341.132812 408.980469 " fill-opacity="1" fill-rule="nonzero"/><path fill="#a8d67c" d="M 171.878906 330.628906 L 171.878906 331.015625 L 184.84375 331.015625 L 184.84375 318.699219 L 171.878906 318.699219 Z M 171.878906 330.628906 " fill-opacity="1" fill-rule="nonzero"/><path fill="#a8d67c" d="M 562.179688 292.191406 L 198.433594 292.191406 L 198.433594 305.441406 L 185.152344 305.441406 L 185.152344 318.035156 L 210.871094 318.035156 L 210.871094 305.050781 L 575.207031 305.050781 L 575.207031 292.191406 Z M 562.179688 292.191406 " fill-opacity="1" fill-rule="nonzero"/><path fill="#a8d67c" d="M 575.339844 305.441406 L 575.339844 305.050781 L 575.207031 305.050781 L 575.207031 318.035156 L 588.207031 318.035156 L 588.207031 305.441406 Z M 575.339844 305.441406 " fill-opacity="1" fill-rule="nonzero"/><g clip-path="url(#713740416c)"><path fill="#3d3b52" d="M 602.195312 316.910156 L 602.195312 304.980469 L 588.910156 304.980469 L 588.910156 291.714844 L 575.628906 291.714844 L 575.628906 278.484375 L 196.625 278.484375 L 196.625 291.753906 L 184.691406 291.753906 L 184.691406 305.023438 L 171.40625 305.023438 L 171.40625 316.910156 L 158.15625 316.910156 L 158.15625 435.769531 L 171.4375 435.769531 L 171.4375 449.039062 L 184.722656 449.039062 L 184.722656 460.957031 L 196.625 460.957031 L 196.625 474.226562 L 575.660156 474.226562 L 575.660156 460.957031 L 588.941406 460.957031 L 588.941406 449.015625 L 602.226562 449.015625 L 602.226562 435.75 L 614.089844 435.75 L 614.089844 316.910156 Z M 599.9375 330.628906 L 599.9375 434.839844 L 588.003906 434.839844 L 588.003906 446.78125 L 574.71875 446.78125 L 574.71875 460.050781 L 198.875 460.050781 L 198.875 446.78125 L 185.589844 446.78125 L 185.589844 434.839844 L 172.308594 434.839844 L 172.308594 319.15625 L 185.589844 319.15625 L 185.589844 305.890625 L 198.875 305.890625 L 198.875 292.621094 L 574.738281 292.621094 L 574.738281 305.890625 L 588.023438 305.890625 L 588.023438 319.15625 L 599.957031 319.15625 Z M 599.9375 330.628906 " fill-opacity="1" fill-rule="nonzero"/></g></svg>